<?xml version='1.0' encoding='utf-8'?>
<svg xmlns="http://www.w3.org/2000/svg" viewBox="0 0 57.045 56.589">
 <defs>
  <linearGradient id="a" x1="-.051098" x2=".33578" y1=".085272" y2=".66664">
   <stop stop-color="#fff" offset="0"/>
   <stop stop-color="#fff" stop-opacity="0" offset="1"/>
  </linearGradient>
 </defs>
 <g fill="#007f00">
  <path d="m55.573 28.288a26.482 26.482 0 1 1 -52.963 0 26.482 26.482 0 1 1 52.963 0z" stroke-width="3.625"/>
  <path d="m53.268 28.286a24.179 24.179 0 1 1 -48.358 0 24.179 24.179 0 1 1 48.358 0z" stroke="#fff" stroke-width=".722"/>
 </g>
 <path d="m29.075 4.1227c-13.347 0-24.175 10.828-24.175 24.175 0 6.4126 2.6169 12.143 6.6955 16.472 2.1188-17.5 16.89-31.107 34.959-31.107 0.48721 0 0.93961 0.09896 1.4221 0.1185-4.4214-5.7507-11.092-9.6581-18.901-9.6581z" fill="url(#a)" stroke-width=".616"/>
 <text x="29.5225" y="51.7943" fill="#fff" font-family="Arial" font-size="65" font-weight="bold" stroke-width="0" text-anchor="middle">+</text>
</svg>